<svg width="32" height="33" viewBox="0 0 32 33" fill="none" xmlns="http://www.w3.org/2000/svg">
<path d="M19 26.5C18.8684 26.5008 18.7379 26.4755 18.6161 26.4258C18.4943 26.376 18.3834 26.3027 18.29 26.21C18.1963 26.117 18.1219 26.0064 18.0711 25.8846C18.0203 25.7627 17.9942 25.632 17.9942 25.5C17.9942 25.368 18.0203 25.2373 18.0711 25.1154C18.1219 24.9936 18.1963 24.883 18.29 24.79L26.59 16.5L18.29 8.21C18.1017 8.0217 17.9959 7.7663 17.9959 7.5C17.9959 7.2337 18.1017 6.97831 18.29 6.79C18.4783 6.6017 18.7337 6.49591 19 6.49591C19.2663 6.49591 19.5217 6.6017 19.71 6.79L28.71 15.79C28.8037 15.883 28.8781 15.9936 28.9289 16.1154C28.9797 16.2373 29.0058 16.368 29.0058 16.5C29.0058 16.632 28.9797 16.7627 28.9289 16.8846C28.8781 17.0064 28.8037 17.117 28.71 17.21L19.71 26.21C19.6166 26.3027 19.5057 26.376 19.3839 26.4258C19.2621 26.4755 19.1316 26.5008 19 26.5Z" fill="#4F4F4F"/>
<path d="M28 17.5H4C3.73478 17.5 3.48043 17.3946 3.29289 17.2071C3.10536 17.0196 3 16.7652 3 16.5C3 16.2348 3.10536 15.9804 3.29289 15.7929C3.48043 15.6054 3.73478 15.5 4 15.5H28C28.2652 15.5 28.5196 15.6054 28.7071 15.7929C28.8946 15.9804 29 16.2348 29 16.5C29 16.7652 28.8946 17.0196 28.7071 17.2071C28.5196 17.3946 28.2652 17.5 28 17.5Z" fill="#4F4F4F"/>
</svg>
