<svg width="32" height="33" viewBox="0 0 32 33" fill="none" xmlns="http://www.w3.org/2000/svg">
<path d="M13 26.5C13.1316 26.5008 13.2621 26.4755 13.3839 26.4258C13.5057 26.376 13.6166 26.3027 13.71 26.21C13.8037 26.117 13.8781 26.0064 13.9289 25.8846C13.9797 25.7627 14.0058 25.632 14.0058 25.5C14.0058 25.368 13.9797 25.2373 13.9289 25.1154C13.8781 24.9936 13.8037 24.883 13.71 24.79L5.41 16.5L13.71 8.21C13.8983 8.0217 14.0041 7.7663 14.0041 7.5C14.0041 7.2337 13.8983 6.97831 13.71 6.79C13.5217 6.6017 13.2663 6.49591 13 6.49591C12.7337 6.49591 12.4783 6.6017 12.29 6.79L3.29 15.79C3.19627 15.883 3.12188 15.9936 3.07111 16.1154C3.02034 16.2373 2.9942 16.368 2.9942 16.5C2.9942 16.632 3.02034 16.7627 3.07111 16.8846C3.12188 17.0064 3.19627 17.117 3.29 17.21L12.29 26.21C12.3834 26.3027 12.4943 26.376 12.6161 26.4258C12.7379 26.4755 12.8684 26.5008 13 26.5Z" fill="#4F4F4F"/>
<path d="M4 17.5H28C28.2652 17.5 28.5196 17.3946 28.7071 17.2071C28.8946 17.0196 29 16.7652 29 16.5C29 16.2348 28.8946 15.9804 28.7071 15.7929C28.5196 15.6054 28.2652 15.5 28 15.5H4C3.73478 15.5 3.48043 15.6054 3.29289 15.7929C3.10536 15.9804 3 16.2348 3 16.5C3 16.7652 3.10536 17.0196 3.29289 17.2071C3.48043 17.3946 3.73478 17.5 4 17.5Z" fill="#4F4F4F"/>
</svg>
