<svg width="20" height="20" viewBox="0 0 20 20" fill="none" xmlns="http://www.w3.org/2000/svg">
<path d="M15 6.66666C15 3.90832 12.7583 1.66666 9.99999 1.66666C7.24166 1.66666 4.99999 3.90832 4.99999 6.66666C4.99999 10.4167 9.99999 15.8333 9.99999 15.8333C9.99999 15.8333 15 10.4167 15 6.66666ZM8.33332 6.66666C8.33332 5.74999 9.08332 4.99999 9.99999 4.99999C10.9167 4.99999 11.6667 5.74999 11.6667 6.66666C11.6667 7.58332 10.925 8.33332 9.99999 8.33332C9.08332 8.33332 8.33332 7.58332 8.33332 6.66666ZM4.16666 16.6667V18.3333H15.8333V16.6667H4.16666Z" fill="#FD064A"/>
</svg>
