<svg xmlns="http://www.w3.org/2000/svg"><symbol fill="none" viewBox="0 0 24 24" id="icon-appartment" xmlns="http://www.w3.org/2000/svg"><path d="M17 11V3H7v4H3v14h8v-4h2v4h8V11h-4zM7 19H5v-2h2v2zm0-4H5v-2h2v2zm0-4H5V9h2v2zm4 4H9v-2h2v2zm0-4H9V9h2v2zm0-4H9V5h2v2zm4 8h-2v-2h2v2zm0-4h-2V9h2v2zm0-4h-2V5h2v2zm4 12h-2v-2h2v2zm0-4h-2v-2h2v2z" fill="currentColor"/></symbol><symbol fill="none" viewBox="0 0 25 24" id="icon-arrow-left" xmlns="http://www.w3.org/2000/svg"><path d="M20.5 11H8.33l5.59-5.59L12.5 4l-8 8 8 8 1.41-1.41L8.33 13H20.5v-2z" fill="currentColor"/></symbol><symbol fill="none" viewBox="0 0 25 24" id="icon-arrow-right" xmlns="http://www.w3.org/2000/svg"><path d="M4.5 11h12.17l-5.59-5.59L12.5 4l8 8-8 8-1.41-1.41L16.67 13H4.5v-2z" fill="currentColor"/></symbol><symbol viewBox="0 0 48 48" id="icon-camera" xmlns="http://www.w3.org/2000/svg"><path d="M24 34.7q3.6 0 6.05-2.45 2.45-2.45 2.45-6.1 0-3.6-2.45-6.025Q27.6 17.7 24 17.7q-3.65 0-6.075 2.425Q15.5 22.55 15.5 26.15q0 3.65 2.425 6.1Q20.35 34.7 24 34.7zm0-3q-2.4 0-3.95-1.575-1.55-1.575-1.55-3.975 0-2.35 1.55-3.9Q21.6 20.7 24 20.7q2.35 0 3.925 1.55 1.575 1.55 1.575 3.9 0 2.4-1.575 3.975Q26.35 31.7 24 31.7zM7 42q-1.2 0-2.1-.9Q4 40.2 4 39V13.35q0-1.15.9-2.075.9-.925 2.1-.925h7.35L18 6h12l3.65 4.35H41q1.15 0 2.075.925Q44 12.2 44 13.35V39q0 1.2-.925 2.1-.925.9-2.075.9zm34-3V13.35h-8.75L28.6 9h-9.2l-3.65 4.35H7V39zM24 26.2z" fill="currentColor"/></symbol><symbol fill="none" viewBox="0 0 32 32" id="icon-chevron-left" xmlns="http://www.w3.org/2000/svg"><path d="M18.64 8l1.88 1.88L14.413 16l6.107 6.12L18.64 24l-8-8 8-8z" fill="currentColor"/></symbol><symbol fill="none" viewBox="0 0 32 32" id="icon-chevron-right" xmlns="http://www.w3.org/2000/svg"><path d="M13.36 8l-1.88 1.88L17.587 16l-6.107 6.12L13.36 24l8-8-8-8z" fill="currentColor"/></symbol><symbol fill="none" viewBox="0 0 24 24" id="icon-commerce" xmlns="http://www.w3.org/2000/svg"><path d="M20 4H4v2h16V4zm1 10v-2l-1-5H4l-1 5v2h1v6h10v-6h4v6h2v-6h1zm-9 4H6v-4h6v4z" fill="currentColor"/></symbol><symbol fill="none" viewBox="0 0 16 17" id="icon-envelope" xmlns="http://www.w3.org/2000/svg"><path d="M14.667 4.5c0-.733-.6-1.333-1.334-1.333H2.667c-.734 0-1.334.6-1.334 1.333v8c0 .733.6 1.333 1.334 1.333h10.666c.734 0 1.334-.6 1.334-1.333v-8zm-1.334 0L8 7.833 2.667 4.5h10.666zm0 8H2.667V5.833L8 9.167l5.333-3.334V12.5z" fill="currentColor"/></symbol><symbol fill="none" viewBox="0 0 24 24" id="icon-envelope-2" xmlns="http://www.w3.org/2000/svg"><path d="M22 6c0-1.1-.9-2-2-2H4c-1.1 0-2 .9-2 2v12c0 1.1.9 2 2 2h16c1.1 0 2-.9 2-2V6zm-2 0l-8 5-8-5h16zm0 12H4V8l8 5 8-5v10z" fill="currentColor"/></symbol><symbol fill="none" viewBox="0 0 24 24" id="icon-facebook" xmlns="http://www.w3.org/2000/svg"><path d="M13.5 9V7.214c0-.806.178-1.214 1.43-1.214h1.57V3h-2.62c-3.211 0-4.27 1.472-4.27 3.998V9H7.5v3h2.11v9h3.89v-9h2.644l.356-3h-3z" fill="currentColor"/></symbol><symbol fill="none" viewBox="0 0 24 24" id="icon-favourite" xmlns="http://www.w3.org/2000/svg"><path d="M16.5 3c-1.74 0-3.41.81-4.5 2.09C10.91 3.81 9.24 3 7.5 3 4.42 3 2 5.42 2 8.5c0 3.78 3.4 6.86 8.55 11.54L12 21.35l1.45-1.32C18.6 15.36 22 12.28 22 8.5 22 5.42 19.58 3 16.5 3zm-4.4 15.55l-.1.1-.1-.1C7.14 14.24 4 11.39 4 8.5 4 6.5 5.5 5 7.5 5c1.54 0 3.04.99 3.57 2.36h1.87C13.46 5.99 14.96 5 16.5 5c2 0 3.5 1.5 3.5 3.5 0 2.89-3.14 5.74-7.9 10.05z" fill="currentColor"/></symbol><symbol fill="none" viewBox="0 0 24 24" id="icon-favourite-fill" xmlns="http://www.w3.org/2000/svg"><path d="M12 21.35l-1.45-1.32C5.4 15.36 2 12.28 2 8.5 2 5.42 4.42 3 7.5 3c1.74 0 3.41.81 4.5 2.09C13.09 3.81 14.76 3 16.5 3 19.58 3 22 5.42 22 8.5c0 3.78-3.4 6.86-8.55 11.54L12 21.35z" fill="currentColor"/></symbol><symbol fill="none" viewBox="0 0 24 24" id="icon-filter" xmlns="http://www.w3.org/2000/svg"><path d="M10 18h4v-2h-4v2zM3 6v2h18V6H3zm3 7h12v-2H6v2z" fill="currentColor"/></symbol><symbol fill="none" viewBox="0 0 24 24" id="icon-forward" xmlns="http://www.w3.org/2000/svg"><path d="M4.15 12h15.7m-4.4 4.78l4.11-4.11a1 1 0 000-1.41l-4-4" stroke="currentColor" stroke-width="4" stroke-linecap="square" stroke-linejoin="bevel"/></symbol><symbol fill="none" viewBox="0 0 41 40" id="icon-graph" xmlns="http://www.w3.org/2000/svg"><path d="M32.167 5H8.833A3.343 3.343 0 005.5 8.333v23.334C5.5 33.5 7 35 8.833 35h23.334C34 35 35.5 33.5 35.5 31.667V8.333C35.5 6.5 34 5 32.167 5zm0 26.667H8.833V8.333h23.334v23.334zm-20-15H15.5v11.666h-3.333V16.667zm6.666-5h3.334v16.666h-3.334V11.667zm6.667 10h3.333v6.666H25.5v-6.666z" fill="currentColor"/></symbol><symbol fill="none" viewBox="0 0 18 18" id="icon-home" xmlns="http://www.w3.org/2000/svg"><path d="M7.5 15v-4.5h3V15h3.75V9h2.25L9 2.25 1.5 9h2.25v6H7.5z" fill="currentColor"/></symbol><symbol fill="none" viewBox="0 0 24 24" id="icon-house" xmlns="http://www.w3.org/2000/svg"><path d="M10 20v-6h4v6h5v-8h3L12 3 2 12h3v8h5z" fill="currentColor"/></symbol><symbol fill="none" viewBox="0 0 24 25" id="icon-info" xmlns="http://www.w3.org/2000/svg"><path d="M11 7.5h2v2h-2v-2zm0 4h2v6h-2v-6zm1-9c-5.52 0-10 4.48-10 10s4.48 10 10 10 10-4.48 10-10-4.48-10-10-10zm0 18c-4.41 0-8-3.59-8-8s3.59-8 8-8 8 3.59 8 8-3.59 8-8 8z" fill="currentColor"/></symbol><symbol fill="none" viewBox="0 0 24 24" id="icon-land" xmlns="http://www.w3.org/2000/svg"><path d="M20.5 3l-.16.03L15 5.1 9 3 3.36 4.9c-.21.07-.36.25-.36.48V20.5c0 .28.22.5.5.5l.16-.03L9 18.9l6 2.1 5.64-1.9c.21-.07.36-.25.36-.48V3.5c0-.28-.22-.5-.5-.5zM15 19l-6-2.11V5l6 2.11V19z" fill="currentColor"/></symbol><symbol fill="none" viewBox="0 0 41 40" id="icon-layout" xmlns="http://www.w3.org/2000/svg"><path d="M33.833 6.667H7.167c-1.834 0-3.317 1.5-3.317 3.333l-.017 20c0 1.833 1.5 3.333 3.334 3.333h26.666c1.834 0 3.334-1.5 3.334-3.333V10c0-1.833-1.5-3.333-3.334-3.333zM7.167 15h17.5v5.833h-17.5V15zm0 9.167h17.5V30h-17.5v-5.833zM33.833 30H28V15h5.833v15z" fill="currentColor"/></symbol><symbol fill="none" viewBox="0 0 20 20" id="icon-location" xmlns="http://www.w3.org/2000/svg"><path d="M15 6.667c0-2.759-2.242-5-5-5s-5 2.241-5 5c0 3.75 5 9.166 5 9.166s5-5.416 5-9.166zm-6.667 0C8.333 5.75 9.083 5 10 5s1.667.75 1.667 1.667a1.666 1.666 0 11-3.334 0zm-4.166 10v1.666h11.666v-1.666H4.167z" fill="currentColor"/></symbol><symbol viewBox="0 0 48 48" id="icon-lock" xmlns="http://www.w3.org/2000/svg"><path d="M24 2q3.95 0 6.725 2.775Q33.5 7.55 33.5 11.5v4.8H37q1.25 0 2.125.875T40 19.3V41q0 1.25-.875 2.125T37 44H11q-1.25 0-2.125-.875T8 41V19.3q0-1.25.875-2.125T11 16.3h3.5v-4.8q0-3.95 2.775-6.725Q20.05 2 24 2zm0 3q-2.7 0-4.6 1.9-1.9 1.9-1.9 4.6v4.8h13v-4.8q0-2.7-1.9-4.6Q26.7 5 24 5zM11 41h26V19.3H11V41zm13-14.7q-1.6 0-2.725 1.225T20.15 30.25q0 1.55 1.125 2.65Q22.4 34 24 34t2.725-1.1q1.125-1.1 1.125-2.65 0-1.5-1.125-2.725T24 26.3zm-13-7V41 19.3z" fill="currentColor"/></symbol><symbol fill="none" viewBox="0 0 24 24" id="icon-message" xmlns="http://www.w3.org/2000/svg"><path d="M20 2H4c-1.1 0-2 .9-2 2v18l4-4h14c1.1 0 2-.9 2-2V4c0-1.1-.9-2-2-2zm0 14H6l-2 2V4h16v12zM7 9h2v2H7V9zm4 0h2v2h-2V9zm4 0h2v2h-2V9z" fill="currentColor"/></symbol><symbol fill="none" viewBox="0 0 32 33" id="icon-next" xmlns="http://www.w3.org/2000/svg"><path d="M19 26.5a1 1 0 01-.71-1.71l8.3-8.29-8.3-8.29a1.004 1.004 0 111.42-1.42l9 9a1.002 1.002 0 010 1.42l-9 9a1 1 0 01-.71.29z" fill="currentColor"/><path d="M28 17.5H4a1 1 0 010-2h24a1 1 0 010 2z" fill="currentColor"/></symbol><symbol fill="none" viewBox="0 0 24 24" id="icon-others" xmlns="http://www.w3.org/2000/svg"><path d="M12 3L1 11.4l1.21 1.59L4 11.62V21h16v-9.38l1.79 1.36L23 11.4 12 3zM8 15c-.55 0-1-.45-1-1s.45-1 1-1 1 .45 1 1-.45 1-1 1zm4 0c-.55 0-1-.45-1-1s.45-1 1-1 1 .45 1 1-.45 1-1 1zm4 0c-.55 0-1-.45-1-1s.45-1 1-1 1 .45 1 1-.45 1-1 1z" fill="currentColor"/></symbol><symbol fill="none" viewBox="0 0 24 24" id="icon-phone" xmlns="http://www.w3.org/2000/svg"><path d="M6.54 5c.06.89.21 1.76.45 2.59l-1.2 1.2c-.41-1.2-.67-2.47-.76-3.79h1.51zm9.86 12.02c.85.24 1.72.39 2.6.45v1.49c-1.32-.09-2.59-.35-3.8-.75l1.2-1.19zM7.5 3H4c-.55 0-1 .45-1 1 0 9.39 7.61 17 17 17 .55 0 1-.45 1-1v-3.49c0-.55-.45-1-1-1-1.24 0-2.45-.2-3.57-.57a.84.84 0 00-.31-.05c-.26 0-.51.1-.71.29l-2.2 2.2a15.149 15.149 0 01-6.59-6.59l2.2-2.2c.28-.28.36-.67.25-1.02A11.36 11.36 0 018.5 4c0-.55-.45-1-1-1z" fill="currentColor"/></symbol><symbol fill="none" viewBox="0 0 32 33" id="icon-prev" xmlns="http://www.w3.org/2000/svg"><path d="M13 26.5a1 1 0 00.71-1.71l-8.3-8.29 8.3-8.29a1.004 1.004 0 10-1.42-1.42l-9 9a1 1 0 000 1.42l9 9a1 1 0 00.71.29z" fill="currentColor"/><path d="M4 17.5h24a1 1 0 000-2H4a1 1 0 000 2z" fill="currentColor"/></symbol><symbol fill="none" viewBox="0 0 24 24" id="icon-print" xmlns="http://www.w3.org/2000/svg"><path d="M19 8h-1V3H6v5H5c-1.66 0-3 1.34-3 3v6h4v4h12v-4h4v-6c0-1.66-1.34-3-3-3zM8 5h8v3H8V5zm8 12v2H8v-4h8v2zm2-2v-2H6v2H4v-4c0-.55.45-1 1-1h14c.55 0 1 .45 1 1v4h-2z" fill="currentColor"/><path d="M18 12.5a1 1 0 100-2 1 1 0 000 2z" fill="currentColor"/></symbol><symbol fill="none" viewBox="0 0 24 24" id="icon-recreation" xmlns="http://www.w3.org/2000/svg"><path d="M10 1c0 1.66-1.34 3-3 3-.55 0-1 .45-1 1H4c0-1.66 1.34-3 3-3 .55 0 1-.45 1-1h2zm2 2L6 7.58V6H4v3.11L1 11.4l1.21 1.59L4 11.62V21h16v-9.38l1.79 1.36L23 11.4 12 3zm1.94 4h-3.89L12 5.52 13.94 7zm-6.5 2h9.12L18 10.1v.9H6v-.9L7.44 9zM18 13v2H6v-2h12zM6 19v-2h12v2H6z" fill="currentColor"/></symbol><symbol fill="none" viewBox="0 0 20 20" id="icon-settings" xmlns="http://www.w3.org/2000/svg"><path d="M2.5 14.167v1.666h5v-1.666h-5zm0-10v1.666h8.333V4.167H2.5zM10.833 17.5v-1.667H17.5v-1.666h-6.667V12.5H9.167v5h1.666zm-5-10v1.667H2.5v1.666h3.333V12.5H7.5v-5H5.833zM17.5 10.833V9.167H9.167v1.666H17.5zm-5-3.333h1.667V5.833H17.5V4.167h-3.333V2.5H12.5v5z" fill="currentColor"/></symbol><symbol fill="none" viewBox="0 0 16 16" id="icon-star-blank" xmlns="http://www.w3.org/2000/svg"><path d="M14.667 6.16l-4.794-.413L8 1.333l-1.873 4.42-4.794.407 3.64 3.153L3.88 14 8 11.513 12.12 14l-1.087-4.687 3.634-3.153zM8 10.267L5.493 11.78l.667-2.853-2.213-1.92 2.92-.254L8 4.067 9.14 6.76l2.92.253-2.213 1.92.666 2.854L8 10.267z" fill="currentColor"/></symbol><symbol fill="none" viewBox="0 0 16 16" id="icon-star-full" xmlns="http://www.w3.org/2000/svg"><path d="M8 11.513L12.12 14l-1.093-4.687 3.64-3.153-4.794-.407L8 1.333l-1.873 4.42-4.794.407 3.64 3.153L3.88 14 8 11.513z" fill="currentColor"/></symbol><symbol fill="none" viewBox="0 0 16 16" id="icon-star-half" xmlns="http://www.w3.org/2000/svg"><path d="M14.667 6.16l-4.794-.413L8 1.333l-1.873 4.42-4.794.407 3.64 3.153L3.88 14 8 11.513 12.12 14l-1.087-4.687 3.634-3.153zM8 10.267v-6.2L9.14 6.76l2.92.253-2.213 1.92.666 2.854L8 10.267z" fill="currentColor"/></symbol><symbol fill="none" viewBox="0 0 41 40" id="icon-structure" xmlns="http://www.w3.org/2000/svg"><path d="M32.167 5H8.833C6.983 5 5.5 6.5 5.5 8.333v23.334A3.332 3.332 0 008.833 35h23.334C34 35 35.5 33.5 35.5 31.667V8.333A3.332 3.332 0 0032.167 5zm0 26.667H8.833v-20h23.334v20zM28.833 20H12.167v-3.333h16.666V20zm-6.666 6.667h-10v-3.334h10v3.334z" fill="currentColor"/></symbol><symbol viewBox="0 0 16 16" id="icon-times" xmlns="http://www.w3.org/2000/svg"><path fill="currentColor" d="M15.924 1.537L14.514.118 8.005 6.586 1.537.076.118 1.485l6.468 6.51-6.51 6.468 1.409 1.418 6.51-6.467 6.468 6.51 1.418-1.41-6.467-6.509z"/></symbol><symbol viewBox="0 0 48 48" id="icon-user" xmlns="http://www.w3.org/2000/svg"><path d="M24 23.95q-3.3 0-5.4-2.1-2.1-2.1-2.1-5.4 0-3.3 2.1-5.4 2.1-2.1 5.4-2.1 3.3 0 5.4 2.1 2.1 2.1 2.1 5.4 0 3.3-2.1 5.4-2.1 2.1-5.4 2.1zM8 40v-4.7q0-1.9.95-3.25T11.4 30q3.35-1.5 6.425-2.25Q20.9 27 24 27q3.1 0 6.15.775 3.05.775 6.4 2.225 1.55.7 2.5 2.05.95 1.35.95 3.25V40zm3-3h26v-1.7q0-.8-.475-1.525-.475-.725-1.175-1.075-3.2-1.55-5.85-2.125Q26.85 30 24 30t-5.55.575q-2.7.575-5.85 2.125-.7.35-1.15 1.075Q11 34.5 11 35.3zm13-16.05q1.95 0 3.225-1.275Q28.5 18.4 28.5 16.45q0-1.95-1.275-3.225Q25.95 11.95 24 11.95q-1.95 0-3.225 1.275Q19.5 14.5 19.5 16.45q0 1.95 1.275 3.225Q22.05 20.95 24 20.95zm0-4.5zM24 37z" fill="currentColor"/></symbol><symbol viewBox="0 0 48 48" id="icon-video" xmlns="http://www.w3.org/2000/svg"><path d="M7 40q-1.2 0-2.1-.9Q4 38.2 4 37V11q0-1.2.9-2.1Q5.8 8 7 8h26q1.2 0 2.1.9.9.9.9 2.1v10.75l8-8v20.5l-8-8V37q0 1.2-.9 2.1-.9.9-2.1.9zm0-3h26V11H7v26zm0 0V11v26z" fill="currentColor"/></symbol><symbol fill="none" viewBox="0 0 41 40" id="icon-village" xmlns="http://www.w3.org/2000/svg"><path d="M13.833 6.667l-10 10v16.666h20V16.667l-10-10zM20.5 30h-5v-5h-3.333v5h-5V18.05l6.666-6.667L20.5 18.05V30zm-5-8.333h-3.333v-3.334H15.5v3.334zm15 11.666V13.917l-7.25-7.25h-4.717l8.634 8.633v18.033H30.5zm6.667 0V11.15l-4.484-4.483h-4.716l5.866 5.866v20.8h3.334z" fill="currentColor"/></symbol><symbol fill="none" viewBox="0 0 24 24" id="icon-virtual-tour" xmlns="http://www.w3.org/2000/svg"><path d="M3 4c0-.55.45-1 1-1h2V1H4C2.34 1 1 2.34 1 4v2h2V4zm0 16v-2H1v2c0 1.66 1.34 3 3 3h2v-2H4c-.55 0-1-.45-1-1zM20 1h-2v2h2c.55 0 1 .45 1 1v2h2V4c0-1.66-1.34-3-3-3zm1 19c0 .55-.45 1-1 1h-2v2h2c1.66 0 3-1.34 3-3v-2h-2v2zm-2-5.13V9.13c0-.72-.38-1.38-1-1.73l-5-2.88c-.31-.18-.65-.27-1-.27s-.69.09-1 .27L6 7.39c-.62.36-1 1.02-1 1.74v5.74c0 .72.38 1.38 1 1.73l5 2.88c.31.18.65.27 1 .27s.69-.09 1-.27l5-2.88c.62-.35 1-1.01 1-1.73zm-8 2.3l-4-2.3v-4.63l4 2.33v4.6zm1-6.33L8.04 8.53 12 6.25l3.96 2.28L12 10.84zm5 4.03l-4 2.3v-4.6l4-2.33v4.63z" fill="currentColor"/></symbol><symbol viewBox="0 0 576 512" id="icon-youtube" xmlns="http://www.w3.org/2000/svg"><path d="M549.655 124.083c-6.281-23.65-24.787-42.276-48.284-48.597C458.781 64 288 64 288 64S117.22 64 74.629 75.486c-23.497 6.322-42.003 24.947-48.284 48.597-11.412 42.867-11.412 132.305-11.412 132.305s0 89.438 11.412 132.305c6.281 23.65 24.787 41.5 48.284 47.821C117.22 448 288 448 288 448s170.78 0 213.371-11.486c23.497-6.321 42.003-24.171 48.284-47.821 11.412-42.867 11.412-132.305 11.412-132.305s0-89.438-11.412-132.305zm-317.51 213.508V175.185l142.739 81.205-142.739 81.201z" fill="currentColor"/></symbol></svg>