<svg width="404" height="302" fill="none" xmlns="http://www.w3.org/2000/svg"><path fill-rule="evenodd" clip-rule="evenodd" d="M316.902 300C338.807 273.926 352 240.29 352 203.571c0-82.842-67.157-150-150-150s-150 67.158-150 150C52 240.29 65.193 273.926 87.098 300h229.804z" fill="#F0F3FD"/><g opacity=".15" fill-rule="evenodd" clip-rule="evenodd"><path d="M261.579 161.909c-.164.195-.27.431-.307.683l-4.821 32.815a1.368 1.368 0 00.815 1.458l4.313 1.848c.067.029.134.052.201.069.183.047.339.197.339.386v10.123a.685.685 0 101.369 0v-11.827V160.578a.342.342 0 00-.604-.221l-1.305 1.552z" fill="#A4A4A4"/><path d="M261.579 161.224c-.164.195-.27.431-.307.683l-4.821 32.815a1.368 1.368 0 00.815 1.458l4.313 1.848c.067.029.134.052.201.069.183.048.339.197.339.386v10.123a.685.685 0 101.369 0v-11.827V159.893a.342.342 0 00-.604-.221l-1.305 1.552z" fill="#C4C4C4"/><path d="M222.747 233.608c.251.044.509.018.745-.076l30.829-12.232c.578-.229.929-.818.855-1.435l-.555-4.659a1.545 1.545 0 00-.041-.209c-.051-.182.001-.391.164-.486l8.767-5.061a.685.685 0 10-.685-1.187l-10.244 5.915-.006.004-6.357 3.669-25.579 14.769a.342.342 0 00.111.634l1.996.354z" fill="#A4A4A4"/><path d="M222.405 233.266c.25.044.508.018.744-.076l30.83-12.232c.577-.229.928-.819.855-1.436l-.556-4.659a1.392 1.392 0 00-.041-.208c-.05-.182.001-.392.165-.486l8.767-5.062a.685.685 0 00-.685-1.186l-10.244 5.914-.007.004-31.936 18.438a.343.343 0 00.111.634l1.997.355z" fill="#C4C4C4"/><path d="M304.7 231.956a1.367 1.367 0 00-.437-.607l-26.008-20.583a1.372 1.372 0 00-1.671-.022l-3.757 2.811c-.058.043-.111.09-.16.139-.133.135-.34.195-.503.101l-8.767-5.062a.685.685 0 00-.685 1.186l10.243 5.915a.03.03 0 01.008.004l31.936 18.438a.342.342 0 00.493-.413l-.692-1.907z" fill="#A4A4A4"/><path d="M304.7 231.272a1.362 1.362 0 00-.437-.607l-26.008-20.583a1.37 1.37 0 00-1.671-.023l-3.757 2.811c-.058.043-.111.09-.16.139-.133.135-.34.195-.503.101l-8.767-5.062a.685.685 0 10-.685 1.187l10.243 5.913.008.005 31.936 18.438a.342.342 0 00.493-.413l-.692-1.906z" fill="#C4C4C4"/><path d="M264.564 211.38a2.74 2.74 0 00-1.076-5.26 2.74 2.74 0 00-1.075 5.26L256.982 302h13.012l-5.43-90.62z" fill="#A4A4A4"/><path d="M263.879 211.38a2.74 2.74 0 00-1.075-5.26 2.74 2.74 0 00-1.076 5.26L256.297 302h13.013l-5.431-90.62z" fill="#C4C4C4"/></g><g opacity=".6"><rect x="56" y="176" width="26.714" height="62.997" rx="13.357" fill="#E9EBF2"/><rect x="68.759" y="201.518" width="1.595" height="98.482" rx=".797" fill="#E1E2E5"/><rect x="75.338" y="205.019" width="1.595" height="13.443" rx=".797" transform="rotate(30 75.338 205.019)" fill="#E1E2E5"/><rect width="1.595" height="18.913" rx=".797" transform="scale(1 -1) rotate(30 457.237 15.886)" fill="#E1E2E5"/></g><rect x="91" y="124" width="38.199" height="90.082" rx="19.1" fill="#E9EBF2"/><rect x="109.245" y="160.489" width="2.281" height="140.825" rx="1.14" fill="#E1E2E5"/><rect x="118.653" y="165.496" width="2.281" height="19.223" rx="1.14" transform="rotate(30 118.653 165.496)" fill="#E1E2E5"/><rect width="2.281" height="27.044" rx="1.14" transform="scale(1 -1) rotate(30 421.049 106.934)" fill="#E1E2E5"/><path opacity=".8" fill-rule="evenodd" clip-rule="evenodd" d="M142 102.932c0 .069-.001.138-.003.206a7.933 7.933 0 01.003 15.859V119h-15.864v-.003a7.932 7.932 0 01-8.136-7.929 7.932 7.932 0 017.932-7.932c.069 0 .138 0 .206.002-.002-.068-.002-.137-.002-.206a7.932 7.932 0 1115.864 0z" fill="#fff"/><path opacity=".6" fill-rule="evenodd" clip-rule="evenodd" d="M288.103 126.897l-.002.104a4 4 0 01.002 7.998V135h-8v-.001L280 135a4 4 0 11.104-7.999l-.001-.104a4 4 0 018 0z" fill="#fff"/><path fill-rule="evenodd" clip-rule="evenodd" d="M221.2 80.828c0-7.085 5.743-12.828 12.828-12.828 5.258 0 9.776 3.163 11.758 7.69a7.823 7.823 0 0112.26 5.31h2.934a6.5 6.5 0 110 13H222.5a6.5 6.5 0 01-1.297-12.87c-.002-.1-.003-.201-.003-.302z" fill="#fff"/><path opacity=".6" fill-rule="evenodd" clip-rule="evenodd" d="M133.121 166.233a5.233 5.233 0 0110.029-2.096 3.192 3.192 0 015.002 2.166h1.196a2.652 2.652 0 110 5.303h-15.696a2.651 2.651 0 01-.529-5.25l-.002-.123z" fill="#fff"/><path fill-rule="evenodd" clip-rule="evenodd" d="M317.382 81.71a2.156 2.156 0 00-.483 1.073l-7.581 51.601a2.154 2.154 0 001.282 2.293l6.782 2.907c.105.045.211.081.316.108.288.074.533.309.533.606v15.919a1.077 1.077 0 002.154 0v-18.598-58.003a.539.539 0 00-.951-.346l-2.052 2.44z" fill="#DCDFE6"/><path fill-rule="evenodd" clip-rule="evenodd" d="M317.382 80.633a2.156 2.156 0 00-.483 1.073l-7.581 51.601a2.154 2.154 0 001.282 2.293l6.782 2.907c.105.045.211.081.316.108.288.075.533.309.533.606v15.919a1.077 1.077 0 002.154 0v-18.598V78.54a.539.539 0 00-.951-.347l-2.052 2.44z" fill="#E9EBF2"/><path fill-rule="evenodd" clip-rule="evenodd" d="M256.32 194.455c.394.07.799.029 1.171-.119l48.478-19.235a2.153 2.153 0 001.345-2.257l-.874-7.326a2.293 2.293 0 00-.064-.328c-.08-.287.001-.616.259-.764l13.785-7.959a1.077 1.077 0 00-1.077-1.866l-16.108 9.3-.011.006-50.218 28.994a.539.539 0 00.175.997l3.139.557z" fill="#DCDFE6"/><path fill-rule="evenodd" clip-rule="evenodd" d="M255.782 193.917c.393.069.799.028 1.17-.119l48.479-19.235a2.153 2.153 0 001.344-2.257l-.873-7.327a2.321 2.321 0 00-.065-.328c-.079-.286.002-.615.259-.764l13.786-7.959a1.077 1.077 0 00-1.077-1.865l-16.108 9.3-.011.006-50.219 28.994a.538.538 0 00.175.996l3.14.558z" fill="#E9EBF2"/><path fill-rule="evenodd" clip-rule="evenodd" d="M385.189 191.858a2.153 2.153 0 00-.688-.955l-40.897-32.366a2.154 2.154 0 00-2.627-.035l-5.908 4.42a2.224 2.224 0 00-.252.219c-.208.212-.534.307-.791.158l-13.786-7.959a1.077 1.077 0 00-1.077 1.865l16.107 9.299.012.008 50.219 28.993a.538.538 0 00.775-.65l-1.087-2.997z" fill="#DCDFE6"/><path fill-rule="evenodd" clip-rule="evenodd" d="M385.189 190.781a2.144 2.144 0 00-.688-.954l-40.897-32.367a2.154 2.154 0 00-2.627-.035l-5.908 4.42a2.224 2.224 0 00-.252.219c-.208.212-.534.307-.791.158l-13.786-7.959a1.077 1.077 0 00-1.077 1.865l16.107 9.3.012.007 50.219 28.993a.538.538 0 00.775-.65l-1.087-2.997z" fill="#E9EBF2"/><path fill-rule="evenodd" clip-rule="evenodd" d="M322.076 159.501a4.308 4.308 0 10-3.383 0L310.154 302h20.461l-8.539-142.499z" fill="#DCDFE6"/><path fill-rule="evenodd" clip-rule="evenodd" d="M320.999 159.501a4.308 4.308 0 10-3.383 0L309.077 302h20.461l-8.539-142.499z" fill="#E9EBF2"/><path d="M331.906 299h-10.939c-12.674 0-7.206-3.766-3.999-4.497-7.167-2.556-1.886-7.372 1.736-5.363-2.263-8.765 5.47-6.939 6.979-2.009 3.017-5.112 8.298-2.556 5.092 2.922 5.469-2.374 5.469 2.374 3.206 3.834 5.469.913 2.413 2.625-.605 2.625 3.584 2.009.943 2.488-1.47 2.488zM283.906 299h-10.939c-12.674 0-7.206-3.766-3.999-4.497-7.167-2.556-1.886-7.372 1.736-5.363-2.263-8.765 5.47-6.939 6.979-2.009 3.017-5.112 8.298-2.556 5.092 2.922 5.469-2.374 5.469 2.374 3.206 3.834 5.469.913 2.413 2.625-.605 2.625 3.584 2.009.943 2.488-1.47 2.488z" fill="#D7D8DE"/><path d="M316.538 300h-21.422c-24.82 0-14.112-7.062-7.833-8.431-14.035-4.793-3.693-13.823 3.401-10.057-4.432-16.433 10.711-13.009 13.666-3.766 5.909-9.586 16.251-4.793 9.972 5.478 10.711-4.45 10.711 4.451 6.279 7.19 10.711 1.712 4.725 4.921-1.185 4.921 7.018 3.766 1.847 4.665-2.878 4.665z" fill="#E1E1E6"/><path d="M273.403 279.831c-.143-.998-.561-2.001-1.411-2.688 1.989.062 2.746.603 3.569 1.41 1.991 1.951.925 4.333-.243 3.951-1.167-.381-1.767-1.639-1.915-2.673z" fill="#E5E6ED"/><path d="M273.247 277.672c2.082 1.018 2.87 3.712 3.151 5.045l-.265.067c-.356-2.793-1.761-4.549-2.886-5.112z" fill="#727785"/><path d="M275.141 278.4c.343.429.239 1.087.164 1.402l-.063-.013c.206-.635.083-1.154-.101-1.389zM274.136 278.774c.171.249.514.302.681.315l.001-.035c-.344.004-.588-.146-.682-.28l-.008-.013a.091.091 0 00.008.013zM275.96 279.39c.221.504-.049 1.113-.202 1.397l-.058-.028c.363-.561.377-1.094.26-1.369l-.012-.025.012.025zM274.24 279.721c.307.456.965.555 1.288.579l.007-.065c-.668.006-1.126-.268-1.295-.514l-.015-.024.015.024zM274.228 280.768c.427.665 1.314.831 1.747.876l.007-.092c-.895-.016-1.519-.425-1.754-.784l-.022-.034.022.034z" fill="#727785"/><path d="M332.01 282.284c.581-.824 1.409-1.527 2.479-1.753-1.8-.849-2.72-.71-3.82-.366-2.66.832-2.793 3.439-1.58 3.63 1.213.191 2.319-.658 2.921-1.511z" fill="#E5E6ED"/><path d="M333.13 280.432c-2.316-.039-4.243 2.002-5.099 3.062l.205.18c1.587-2.326 3.636-3.252 4.894-3.242z" fill="#727785"/><path d="M331.113 280.22c-.501.226-.708.859-.784 1.173l.063.018c.104-.66.45-1.066.721-1.191l.026-.012-.026.012zM331.837 281.01c-.265.144-.594.036-.749-.029l.015-.033c.305.161.59.139.734.062a.232.232 0 01.014-.008l-.014.008zM329.933 280.73c-.426.348-.462 1.013-.455 1.336l.065.001c-.069-.665.16-1.146.39-1.337l.022-.018-.022.018zM331.315 281.805c-.481.268-1.112.057-1.41-.069l.023-.061c.592.309 1.125.273 1.387.13zM330.85 282.744c-.683.398-1.548.143-1.955-.014l.036-.085c.804.392 1.546.312 1.919.099l.035-.021-.035.021z" fill="#727785"/><path d="M309.101 265.924c.07-1.006.415-2.036 1.212-2.784-1.978.206-2.694.802-3.457 1.666-1.844 2.09-.607 4.389.53 3.923 1.136-.465 1.643-1.764 1.715-2.805z" fill="#E5E6ED"/><path d="M309.1 263.759c-2.002 1.167-2.592 3.911-2.776 5.261l.27.047c.151-2.811 1.425-4.665 2.506-5.308z" fill="#727785"/><path d="M307.264 264.623c-.311.453-.159 1.102-.062 1.41l.063-.017c-.253-.619-.167-1.146-.001-1.393l.017-.024-.017.024zM308.293 264.923c-.152.261-.49.339-.655.363l-.005-.035c.344-.021.576-.187.66-.328l.008-.014-.008.014zM306.52 265.67c-.184.518.129 1.106.303 1.379l.056-.033c-.404-.532-.457-1.063-.359-1.346l.01-.026-.01.026zM308.258 265.875c-.272.477-.921.624-1.241.671l-.012-.064c.667-.043 1.103-.349 1.253-.607l.014-.025-.014.025zM308.347 266.919c-.378.693-1.25.923-1.679 1l-.013-.091c.891-.082 1.484-.535 1.692-.909z" fill="#727785"/><path d="M287.5 266.729c-.034-.592-.229-1.201-.693-1.647 1.163.136 1.58.491 2.022 1.006 1.07 1.243.326 2.586-.34 2.304-.665-.282-.954-1.05-.989-1.663z" fill="#E5E6ED"/><path d="M287.517 265.455c1.169.701 1.496 2.32 1.594 3.116l-.158.026c-.069-1.656-.805-2.755-1.436-3.142a1.9 1.9 0 00-.061-.035l.061.035z" fill="#727785"/><path d="M288.591 265.977c.179.269.086.649.026.83l-.037-.011c.153-.362.107-.672.011-.819l-.01-.014.01.014zM287.983 266.146c.088.154.286.203.383.218l.003-.02c-.202-.015-.338-.115-.386-.198l-.004-.008.004.008zM289.021 266.598c.105.307-.084.65-.188.809l-.033-.019c.241-.311.276-.623.221-.79l-.006-.015.006.015zM287.996 266.706c.157.283.538.374.726.404l.008-.038c-.392-.03-.647-.213-.734-.366l-.007-.015.007.015zM287.937 267.32c.217.41.729.552.98.6l.009-.053c-.524-.055-.869-.325-.989-.547l-.011-.022.011.022z" fill="#727785"/><path d="M75.59 300H64.976c-12.298 0-6.992-3.499-3.881-4.177-6.954-2.375-1.83-6.849 1.685-4.983-2.196-8.142 5.307-6.446 6.77-1.866 2.929-4.749 8.053-2.375 4.942 2.714 5.306-2.205 5.306 2.205 3.11 3.562 5.307.849 2.341 2.439-.586 2.439 3.477 1.866.915 2.311-1.426 2.311z" fill="#EDEEF2"/><path d="M81.476 299.505h-5.42c-6.279 0-3.57-1.866-1.981-2.228-3.551-1.267-.935-3.653.86-2.658-1.121-4.342 2.71-3.438 3.458-.995 1.495-2.533 4.111-1.266 2.523 1.448 2.71-1.176 2.71 1.176 1.588 1.899 2.71.453 1.195 1.301-.3 1.301 1.776.995.468 1.233-.728 1.233z" fill="#DFE0E6"/><path d="M57.246 287.448c-.287-.408-.698-.756-1.228-.868.892-.421 1.348-.352 1.893-.182 1.318.413 1.384 1.704.783 1.799-.602.094-1.15-.326-1.448-.749z" fill="#E5E6ED"/><path d="M56.691 286.531c1.148-.02 2.103.992 2.527 1.517l-.102.089c-.786-1.153-1.801-1.611-2.425-1.606l-.06.001.06-.001z" fill="#727785"/><path d="M57.691 286.425c.248.113.35.426.388.582l-.03.009c-.052-.327-.224-.528-.358-.591l-.013-.005.013.005zM57.332 286.817c.132.071.295.018.371-.015l-.007-.015c-.15.079-.292.068-.364.03l-.007-.004.007.004zM58.276 286.678c.21.172.229.502.225.662l-.032.001c.034-.33-.08-.568-.193-.663a.54.54 0 00-.012-.009l.012.009zM57.591 287.211c.238.133.55.028.698-.034l-.01-.03c-.294.153-.558.135-.688.064l-.012-.007.012.007zM57.822 287.676c.338.197.766.071.968-.007l-.018-.042c-.398.194-.766.155-.95.049l-.018-.01.017.01z" fill="#727785"/><path d="M81.979 290.916c.287-.408.698-.756 1.228-.868-.892-.421-1.348-.352-1.893-.181-1.318.412-1.384 1.704-.782 1.798.6.094 1.148-.326 1.447-.749z" fill="#E5E6ED"/><path d="M82.534 289.999c-1.148-.02-2.103.992-2.527 1.517l.102.089c.786-1.152 1.802-1.611 2.425-1.606l.06.002a1.155 1.155 0 00-.06-.002z" fill="#727785"/><path d="M81.534 289.894c-.248.112-.35.426-.388.581l.03.009c.053-.327.224-.528.358-.59l.013-.006-.013.006zM81.893 290.285c-.131.071-.294.018-.37-.014l.006-.016c.151.079.292.068.364.03l.007-.004-.007.004zM80.95 290.146c-.211.173-.23.502-.226.662l.032.001c-.034-.329.08-.568.194-.663zM81.634 290.679c-.238.133-.55.028-.698-.034l.011-.03c.294.153.557.135.687.064zM81.404 291.145c-.339.196-.767.07-.969-.007l.018-.043c.399.195.766.155.95.05l.018-.011-.017.011z" fill="#727785"/><path d="M70.914 285.098c.035-.498.205-1.008.6-1.379-.98.102-1.334.397-1.712.826-.914 1.035-.301 2.174.262 1.943.563-.23.814-.874.85-1.39z" fill="#E5E6ED"/><path d="M70.913 284.026c-.992.578-1.284 1.938-1.375 2.606l.134.024c.075-1.393.706-2.311 1.241-2.63l.052-.029-.052.029z" fill="#727785"/><path d="M70.004 284.454c-.154.224-.08.546-.03.698l.03-.008c-.125-.307-.083-.568 0-.69zM70.514 284.603c-.076.129-.243.167-.325.18l-.002-.018c.17-.01.285-.093.327-.162 0-.003.002-.005.004-.007l-.004.007zM69.635 284.973c-.091.257.064.548.15.683l.028-.016c-.2-.264-.226-.527-.178-.667zM70.496 285.074c-.134.237-.456.309-.615.332l-.006-.031c.33-.021.547-.173.621-.301zM70.54 285.591c-.187.344-.62.458-.832.496l-.006-.045c.441-.041.735-.265.838-.451z" fill="#727785"/><path d="M60.466 285.002c-.017-.294-.114-.595-.343-.816.576.067.782.243 1.001.498.53.616.161 1.282-.168 1.142-.33-.14-.473-.52-.49-.824z" fill="#E5E6ED"/><path d="M60.474 284.371c.58.347.741 1.149.79 1.543l-.079.013c-.034-.82-.398-1.365-.711-1.556a2.722 2.722 0 00-.03-.018l.03.018z" fill="#727785"/><path d="M61.006 284.629c.089.133.042.322.013.411l-.018-.005c.076-.179.053-.333.005-.406a.042.042 0 01-.005-.007l.005.007zM60.705 284.713c.043.077.142.101.19.108l.001-.01c-.1-.007-.167-.057-.191-.098l-.002-.004.002.004zM61.22 284.937c.051.152-.042.322-.094.401l-.016-.01c.12-.154.137-.308.11-.391l-.004-.008a.168.168 0 00.003.008zM60.712 284.99c.077.141.266.186.36.201l.003-.019c-.194-.015-.32-.106-.363-.182zM60.682 285.295c.108.203.361.273.486.297l.004-.026c-.26-.027-.43-.162-.49-.271l-.006-.011.006.011z" fill="#727785"/><path d="M78.76 288.47c.016-.293.113-.595.343-.816-.576.067-.783.244-1.002.498-.53.616-.161 1.282.168 1.142.33-.14.473-.52.49-.824z" fill="#E5E6ED"/><path d="M78.751 287.839c-.58.347-.741 1.149-.79 1.544l.079.012c.034-.82.398-1.365.711-1.556z" fill="#727785"/><path d="M78.22 288.097c-.09.134-.043.322-.014.412l.018-.006c-.075-.179-.052-.333-.005-.406zM78.52 288.181c-.043.077-.141.101-.19.108v-.01c.1-.007.166-.056.19-.098l.002-.004-.002.004zM78.006 288.405c-.052.152.042.322.093.401l.016-.01c-.119-.153-.136-.308-.109-.391l.003-.007-.003.007zM78.514 288.459c-.078.14-.267.185-.36.2l-.004-.019c.195-.015.32-.106.364-.181l.004-.008-.004.008zM78.543 288.763c-.108.203-.36.274-.486.297l-.004-.026c.26-.027.43-.161.49-.271l.006-.011-.006.011z" fill="#727785"/><path d="M116.59 300h-10.614c-12.298 0-6.992-3.499-3.881-4.177-6.954-2.375-1.83-6.849 1.685-4.983-2.196-8.142 5.307-6.446 6.771-1.866 2.928-4.749 8.052-2.375 4.941 2.714 5.307-2.205 5.307 2.205 3.111 3.562 5.306.849 2.34 2.439-.587 2.439 3.477 1.866.915 2.311-1.426 2.311z" fill="#EDEEF2"/><path d="M122.476 299.505h-5.42c-6.279 0-3.57-1.866-1.981-2.228-3.551-1.267-.935-3.653.86-2.658-1.121-4.342 2.71-3.438 3.458-.995 1.495-2.533 4.111-1.266 2.523 1.448 2.71-1.176 2.71 1.176 1.588 1.899 2.71.453 1.196 1.301-.3 1.301 1.776.995.468 1.233-.728 1.233z" fill="#DFE0E6"/><path d="M98.246 287.448c-.287-.408-.698-.756-1.228-.868.892-.421 1.348-.352 1.893-.182 1.318.413 1.384 1.704.783 1.799-.602.094-1.15-.326-1.448-.749z" fill="#E5E6ED"/><path d="M97.691 286.531c1.148-.02 2.103.992 2.527 1.517l-.102.089c-.786-1.153-1.801-1.611-2.425-1.606l-.06.001.06-.001z" fill="#727785"/><path d="M98.691 286.425c.248.113.35.426.388.582l-.03.009c-.052-.327-.224-.528-.358-.591l-.013-.005.013.005zM98.332 286.817c.132.071.295.018.371-.015l-.007-.015c-.15.079-.292.068-.364.03l-.007-.004.007.004zM99.276 286.678c.21.172.229.502.225.662l-.032.001c.034-.33-.08-.568-.193-.663a.54.54 0 00-.011-.009l.01.009zM98.591 287.211c.238.133.55.028.699-.034l-.012-.03c-.293.153-.557.135-.687.064l-.012-.007.012.007zM98.822 287.676c.338.197.766.071.968-.007l-.018-.042c-.398.194-.766.155-.95.049l-.018-.01.017.01z" fill="#727785"/><path d="M122.979 290.916c.288-.408.698-.756 1.228-.868-.892-.421-1.348-.352-1.893-.181-1.318.412-1.384 1.704-.783 1.798.602.094 1.15-.326 1.448-.749z" fill="#E5E6ED"/><path d="M123.534 289.999c-1.148-.02-2.103.992-2.527 1.517l.102.089c.786-1.152 1.801-1.611 2.425-1.606l.059.002a1.124 1.124 0 00-.059-.002z" fill="#727785"/><path d="M122.534 289.894c-.248.112-.35.426-.388.581l.031.009c.052-.327.223-.528.357-.59zM122.893 290.285c-.131.071-.295.018-.371-.014l.007-.016c.151.079.292.068.364.03l.007-.004-.007.004zM121.95 290.146c-.211.173-.229.502-.226.662l.032.001c-.034-.329.08-.568.194-.663zM122.634 290.679c-.238.133-.551.028-.698-.034l.011-.03c.294.153.557.135.687.064a.075.075 0 00.012-.007c-.003.003-.008.005-.012.007zM122.404 291.145c-.339.196-.767.07-.969-.007l.018-.043c.399.195.766.155.951.05l.017-.011-.017.011z" fill="#727785"/><path d="M111.914 285.098c.035-.498.205-1.008.601-1.379-.981.102-1.335.397-1.713.826-.914 1.035-.301 2.174.262 1.943.563-.23.814-.874.85-1.39z" fill="#E5E6ED"/><path d="M111.913 284.026c-.992.578-1.284 1.938-1.375 2.606l.134.024c.075-1.393.706-2.311 1.241-2.63z" fill="#727785"/><path d="M111.004 284.454c-.154.224-.079.546-.031.698l.031-.008c-.125-.307-.083-.568 0-.69l.008-.012-.008.012zM111.514 284.603c-.076.129-.243.167-.325.18l-.002-.018c.17-.01.285-.093.327-.162l.003-.007-.003.007zM110.635 284.973c-.091.257.064.548.15.683l.028-.016c-.2-.264-.226-.527-.178-.667l.005-.013-.005.013zM111.496 285.074c-.134.237-.456.309-.615.332l-.006-.031c.331-.021.547-.173.621-.301l.007-.012-.007.012zM111.54 285.591c-.187.344-.619.458-.831.496l-.007-.045c.441-.041.735-.265.838-.451z" fill="#727785"/><path d="M101.466 285.002c-.017-.294-.114-.595-.344-.816.577.067.783.243 1.002.498.53.616.161 1.282-.168 1.142-.33-.14-.473-.52-.49-.824z" fill="#E5E6ED"/><path d="M101.474 284.371c.579.347.741 1.149.79 1.543l-.079.013c-.034-.82-.398-1.365-.711-1.556l-.03-.018.03.018z" fill="#727785"/><path d="M102.006 284.629c.089.133.043.322.013.411l-.018-.005c.076-.179.053-.333.005-.406l-.005-.007.005.007zM101.705 284.713c.043.077.142.101.19.108l.001-.01c-.1-.007-.167-.057-.191-.098zM102.219 284.937c.052.152-.041.322-.093.401l-.016-.01c.119-.154.137-.308.109-.391zM101.712 284.99c.077.141.266.186.359.201l.004-.019c-.194-.015-.321-.106-.363-.182zM101.682 285.295c.108.203.361.273.486.297l.004-.026c-.259-.027-.431-.162-.49-.271l-.005-.011.005.011z" fill="#727785"/><path d="M119.759 288.47c.017-.293.114-.595.344-.816-.576.067-.783.244-1.002.498-.53.616-.161 1.282.168 1.142.33-.14.473-.52.49-.824z" fill="#E5E6ED"/><path d="M119.751 287.839c-.579.347-.741 1.149-.79 1.544l.079.012c.034-.82.398-1.365.711-1.556l.031-.018-.031.018z" fill="#727785"/><path d="M119.219 288.097c-.089.134-.042.322-.013.412l.018-.006c-.075-.179-.052-.333-.005-.406l.005-.006-.005.006zM119.52 288.181c-.043.077-.141.101-.19.108l-.001-.01c.1-.007.167-.056.191-.098l.002-.004-.002.004zM119.006 288.405c-.052.152.042.322.093.401l.017-.01c-.12-.153-.137-.308-.11-.391l.003-.007-.003.007zM119.514 288.459c-.078.14-.267.185-.36.2l-.004-.019c.195-.015.321-.106.364-.181zM119.543 288.763c-.107.203-.361.274-.486.297l-.004-.026c.26-.027.431-.161.49-.271l.006-.011-.006.011z" fill="#727785"/><path fill="#20242E" d="M197 169h8v130h-8z"/><path fill="#334680" d="M197 169h6v130h-6z"/><path d="M226.717 98.563a9.263 9.263 0 018.021 4.631l25.216 43.676a9.264 9.264 0 010 9.262l-25.216 43.675a9.262 9.262 0 01-8.021 4.631h-50.433a9.26 9.26 0 01-8.02-4.631l-25.216-43.675a9.262 9.262 0 01-.001-9.262l25.217-43.676a9.262 9.262 0 018.02-4.63h50.433z" fill="#F81755"/><path fill-rule="evenodd" clip-rule="evenodd" d="M155.589 177.854c38.57-4.189 68.591-36.862 68.591-76.546 0-.919-.016-1.834-.048-2.745h-47.848a9.262 9.262 0 00-8.02 4.631l-25.217 43.676a9.264 9.264 0 000 9.262l12.542 21.722z" fill="#fff" fill-opacity=".15"/><path d="M223.438 105.15a6.784 6.784 0 015.876 3.393l22.559 39.072a6.787 6.787 0 010 6.786l-22.559 39.072a6.784 6.784 0 01-5.876 3.393h-45.117a6.784 6.784 0 01-5.876-3.393l-22.559-39.072a6.787 6.787 0 010-6.786l22.559-39.072a6.784 6.784 0 015.876-3.393h45.117z" stroke="#fff" stroke-width="3"/><path d="M189.026 159.908v-4.6h-2.24v-6.48h-5.24v6.48h-5.32l7.88-18.6h-5.24l-7.88 18.6v4.6h10.56v4.4h5.24v-4.4h2.24zm5.419 2.48c1.36 1.6 3.44 2.36 6.24 2.36 2.8 0 4.84-.8 6.2-2.4 1.36-1.6 2.04-3.96 2.04-7.12v-9.76c0-3.04-.68-5.32-2.04-6.88-1.36-1.52-3.4-2.32-6.2-2.32-2.72 0-4.76.8-6.16 2.36-1.4 1.56-2.08 3.84-2.08 6.84v9.76c0 3.2.64 5.56 2 7.16zm8.6-3.4c-.4.8-1.2 1.2-2.36 1.2s-1.96-.4-2.36-1.2c-.4-.8-.6-2.2-.6-4.2v-8.56c0-1.96.2-3.36.6-4.16.4-.8 1.16-1.2 2.36-1.2 1.16 0 1.96.4 2.36 1.2.4.8.64 2.2.64 4.16v8.56c0 2-.24 3.4-.64 4.2zm27.309.92v-4.6h-2.24v-6.48h-5.24v6.48h-5.32l7.88-18.6h-5.24l-7.88 18.6v4.6h10.56v4.4h5.24v-4.4h2.24zM145.357 223h9.875l22.442 70.02h-54.76L145.357 223z" fill="#fff"/><path fill-rule="evenodd" clip-rule="evenodd" d="M145.357 223h9.875l9.063 28.277h-28.001L145.357 223zm-11.653 36.357l-3.309 10.323h39.798l-3.309-10.323h-33.18zm-5.898 18.403h44.977l4.891 15.26h-54.76l4.892-15.26z" fill="#F81755"/><path fill="#F81755" d="M109 293.02h82.588v6.284H109z"/><path fill-rule="evenodd" clip-rule="evenodd" d="M175.516 286.288l2.158 6.733h-54.76l2.158-6.733h50.444z" fill="#000" fill-opacity=".2"/><mask id="404-a" style="mask-type:alpha" maskUnits="userSpaceOnUse" x="109" y="223" width="83" height="77"><path fill-rule="evenodd" clip-rule="evenodd" d="M145.357 223h9.875l9.063 28.277h-28.001L145.357 223zm-11.653 36.357l-3.309 10.323h39.798l-3.309-10.323h-33.18zm-5.898 18.403h44.977l4.891 15.26h-54.76l4.892-15.26z" fill="#2F63FF"/><path fill="#2F63FF" d="M109 293.02h82.588v6.284H109z"/><path fill-rule="evenodd" clip-rule="evenodd" d="M175.516 286.288l2.158 6.733h-54.76l2.158-6.733h50.444z" fill="#000" fill-opacity=".2"/></mask><g mask="url(#404-a)"><circle cx="98.228" cy="205.944" r="83.935" fill="#fff" fill-opacity=".2"/></g><path d="M2 300h400" stroke="#20242E" stroke-width="4" stroke-linecap="round" stroke-linejoin="round"/></svg>