<svg width="404" height="302" fill="none" xmlns="http://www.w3.org/2000/svg"><path fill-rule="evenodd" clip-rule="evenodd" d="M316.902 300C338.807 273.926 352 240.29 352 203.571c0-82.842-67.157-150-150-150s-150 67.158-150 150C52 240.29 65.193 273.926 87.098 300h229.804z" fill="#F0F3FD"/><path opacity=".7" fill-rule="evenodd" clip-rule="evenodd" d="M161 114.932c0 .069-.001.138-.003.206a7.933 7.933 0 01.003 15.859V131h-15.864v-.003a7.932 7.932 0 01-8.136-7.929 7.932 7.932 0 018.138-7.93c-.002-.068-.002-.137-.002-.206a7.932 7.932 0 017.932-7.932 7.932 7.932 0 017.932 7.932z" fill="#fff"/><g opacity=".15" fill-rule="evenodd" clip-rule="evenodd"><path d="M109.579 156.909c-.164.195-.27.431-.307.683l-4.821 32.815a1.37 1.37 0 00.815 1.458l4.313 1.848c.067.029.134.052.201.069.183.047.339.197.339.386v10.123a.685.685 0 101.369 0v-11.827V155.578a.342.342 0 00-.604-.221l-1.305 1.552z" fill="#A4A4A4"/><path d="M109.579 156.224c-.164.195-.27.431-.307.683l-4.821 32.815a1.368 1.368 0 00.815 1.458l4.313 1.848c.067.029.134.052.201.069.183.048.339.197.339.386v10.123a.685.685 0 101.369 0v-11.827V154.893a.342.342 0 00-.604-.221l-1.305 1.552z" fill="#C4C4C4"/><path d="M70.747 228.608c.25.044.508.018.745-.076L102.32 216.3c.578-.229.929-.818.855-1.435l-.555-4.659a1.545 1.545 0 00-.041-.209c-.051-.182.001-.391.164-.486l8.767-5.061a.685.685 0 10-.685-1.187l-10.244 5.915a.02.02 0 00-.006.004l-6.357 3.669-25.58 14.769a.343.343 0 00.112.634l1.996.354z" fill="#A4A4A4"/><path d="M70.405 228.266c.25.044.508.018.744-.076l30.83-12.232c.577-.229.928-.819.855-1.436l-.556-4.659a1.392 1.392 0 00-.041-.208c-.05-.182.001-.392.165-.486l8.767-5.062a.685.685 0 00-.685-1.186l-10.244 5.914-.007.004-31.936 18.438a.343.343 0 00.111.634l1.997.355z" fill="#C4C4C4"/><path d="M152.7 226.956a1.367 1.367 0 00-.437-.607l-26.008-20.583a1.372 1.372 0 00-1.671-.022l-3.757 2.811c-.058.043-.111.09-.16.139-.133.135-.34.195-.503.101l-8.767-5.062a.685.685 0 00-.685 1.186l10.243 5.914.008.005 31.936 18.438a.342.342 0 00.493-.413l-.692-1.907z" fill="#A4A4A4"/><path d="M152.7 226.272a1.362 1.362 0 00-.437-.607l-26.008-20.583a1.37 1.37 0 00-1.671-.023l-3.757 2.811c-.058.043-.111.09-.16.139-.133.135-.34.195-.503.101l-8.767-5.062a.685.685 0 10-.685 1.187l10.243 5.913.008.005 31.936 18.438a.342.342 0 00.493-.413l-.692-1.906z" fill="#C4C4C4"/><path d="M112.564 206.38a2.74 2.74 0 00-1.076-5.26 2.739 2.739 0 00-1.075 5.26L104.982 297h13.012l-5.43-90.62z" fill="#A4A4A4"/><path d="M111.879 206.38a2.74 2.74 0 00-1.075-5.26 2.74 2.74 0 00-1.076 5.26L104.297 297h13.013l-5.431-90.62z" fill="#C4C4C4"/></g><g opacity=".6"><rect x="326" y="176" width="26.714" height="62.997" rx="13.357" fill="#E9EBF2"/><rect x="338.759" y="201.518" width="1.595" height="98.482" rx=".797" fill="#E1E2E5"/><rect x="345.338" y="205.019" width="1.595" height="13.443" rx=".797" transform="rotate(30 345.338 205.019)" fill="#E1E2E5"/><rect width="1.595" height="18.913" rx=".797" transform="scale(1 -1) rotate(30 592.237 519.713)" fill="#E1E2E5"/></g><rect x="298" y="124" width="38.199" height="90.082" rx="19.1" fill="#E9EBF2"/><rect x="316.245" y="160.489" width="2.281" height="140.825" rx="1.14" fill="#E1E2E5"/><rect x="325.653" y="165.496" width="2.281" height="19.223" rx="1.14" transform="rotate(30 325.653 165.496)" fill="#E1E2E5"/><rect width="2.281" height="27.044" rx="1.14" transform="scale(1 -1) rotate(30 524.548 493.2)" fill="#E1E2E5"/><path fill-rule="evenodd" clip-rule="evenodd" d="M71.382 81.71a2.153 2.153 0 00-.483 1.073l-7.581 51.601a2.154 2.154 0 001.282 2.293l6.782 2.907c.105.045.21.081.316.108.288.074.533.309.533.606v15.919a1.077 1.077 0 002.154 0v-18.598-58.003a.538.538 0 00-.95-.346l-2.053 2.44z" fill="#DCDFE6"/><path fill-rule="evenodd" clip-rule="evenodd" d="M71.382 80.633a2.153 2.153 0 00-.483 1.073l-7.581 51.601A2.154 2.154 0 0064.6 135.6l6.782 2.907c.105.045.21.081.316.108.288.075.533.309.533.606v15.919a1.078 1.078 0 002.154 0v-18.598V78.54a.538.538 0 00-.95-.347l-2.053 2.44z" fill="#E9EBF2"/><path fill-rule="evenodd" clip-rule="evenodd" d="M10.32 194.455c.394.07.8.029 1.17-.119l48.48-19.235a2.153 2.153 0 001.344-2.257l-.874-7.326a2.213 2.213 0 00-.064-.328c-.08-.287.001-.616.259-.764l13.785-7.959a1.078 1.078 0 00-1.077-1.866l-16.108 9.3-.01.006-50.22 28.994a.539.539 0 00.176.997l3.14.557z" fill="#DCDFE6"/><path fill-rule="evenodd" clip-rule="evenodd" d="M9.782 193.917c.393.069.799.028 1.17-.119l48.48-19.235a2.154 2.154 0 001.343-2.257l-.873-7.327a2.239 2.239 0 00-.065-.328c-.079-.286.002-.615.26-.764l13.785-7.959a1.077 1.077 0 10-1.077-1.865l-16.108 9.3-.011.006-50.219 28.994a.538.538 0 00.175.996l3.14.558z" fill="#E9EBF2"/><path fill-rule="evenodd" clip-rule="evenodd" d="M139.189 191.858a2.153 2.153 0 00-.688-.955l-40.897-32.366a2.153 2.153 0 00-2.627-.035l-5.908 4.42a2.17 2.17 0 00-.252.219c-.208.212-.534.307-.791.158L74.24 155.34a1.077 1.077 0 00-1.077 1.865l16.107 9.299.012.008 50.219 28.993a.538.538 0 00.775-.65l-1.087-2.997z" fill="#DCDFE6"/><path fill-rule="evenodd" clip-rule="evenodd" d="M139.189 190.781a2.144 2.144 0 00-.688-.954L97.604 157.46a2.153 2.153 0 00-2.627-.035l-5.908 4.42a2.17 2.17 0 00-.252.219c-.208.212-.534.307-.791.158l-13.786-7.959a1.077 1.077 0 00-1.077 1.865l16.108 9.3.011.007 50.219 28.993a.538.538 0 00.775-.65l-1.087-2.997z" fill="#E9EBF2"/><path fill-rule="evenodd" clip-rule="evenodd" d="M76.076 159.501a4.308 4.308 0 10-3.383 0L64.153 302h20.462l-8.539-142.499z" fill="#DCDFE6"/><path fill-rule="evenodd" clip-rule="evenodd" d="M75 159.501a4.308 4.308 0 10-3.384 0L63.076 302h20.462L75 159.501z" fill="#E9EBF2"/><path opacity=".6" fill-rule="evenodd" clip-rule="evenodd" d="M259.103 143l-.002.104a4 4 0 01.002 7.997v.002h-8v-.002a4 4 0 11.001-7.997l-.001-.104a4 4 0 018 0z" fill="#fff"/><path opacity=".5" fill-rule="evenodd" clip-rule="evenodd" d="M281 185.314l-.001.06a2.313 2.313 0 01.001 4.625V190h-.058-4.569v-.001l-.059.001a2.314 2.314 0 11.06-4.626l-.001-.06a2.314 2.314 0 114.627 0z" fill="#fff"/><path fill-rule="evenodd" clip-rule="evenodd" d="M217.2 93.828c0-7.085 5.743-12.828 12.828-12.828 5.258 0 9.776 3.163 11.758 7.69a7.823 7.823 0 0112.26 5.31h2.934a6.5 6.5 0 110 13H218.5a6.5 6.5 0 01-1.297-12.87c-.002-.1-.003-.201-.003-.302z" fill="#fff"/><path opacity=".6" fill-rule="evenodd" clip-rule="evenodd" d="M92.121 142.233a5.233 5.233 0 0110.029-2.096 3.192 3.192 0 015.002 2.166h1.196a2.652 2.652 0 110 5.303H92.651a2.651 2.651 0 01-.528-5.25l-.002-.123z" fill="#fff"/><path d="M115.59 300h-10.614c-12.298 0-6.992-3.499-3.881-4.177-6.954-2.375-1.83-6.849 1.685-4.983-2.196-8.142 5.307-6.446 6.771-1.866 2.928-4.749 8.052-2.375 4.941 2.714 5.307-2.205 5.307 2.205 3.111 3.562 5.306.849 2.34 2.439-.587 2.439 3.477 1.866.915 2.311-1.426 2.311z" fill="#EDEEF2"/><path d="M121.476 299.505h-5.42c-6.279 0-3.57-1.866-1.981-2.228-3.551-1.267-.935-3.653.86-2.658-1.121-4.342 2.71-3.438 3.458-.995 1.495-2.533 4.111-1.266 2.523 1.448 2.71-1.176 2.71 1.176 1.588 1.899 2.71.453 1.196 1.301-.3 1.301 1.776.995.468 1.233-.728 1.233z" fill="#DFE0E6"/><path d="M97.246 287.448c-.287-.408-.698-.756-1.228-.868.892-.421 1.348-.352 1.893-.182 1.318.413 1.384 1.704.783 1.799-.602.094-1.15-.326-1.448-.749z" fill="#E5E6ED"/><path d="M96.691 286.531c1.148-.02 2.103.992 2.527 1.517l-.102.089c-.786-1.153-1.801-1.611-2.425-1.606l-.06.001.06-.001z" fill="#727785"/><path d="M97.691 286.425c.248.113.35.426.388.582l-.03.009c-.052-.327-.224-.528-.358-.591l-.013-.005.013.005zM97.332 286.817c.132.071.295.018.371-.015l-.007-.015c-.151.079-.292.068-.364.03l-.007-.004.007.004zM98.275 286.678c.212.172.23.502.226.662l-.032.001c.034-.33-.08-.568-.194-.663zM97.591 287.211c.238.133.551.028.699-.034l-.012-.03c-.293.153-.557.135-.687.064l-.012-.007.012.007zM97.821 287.676c.339.197.767.071.969-.007l-.018-.042c-.399.194-.766.155-.95.049l-.018-.01.017.01z" fill="#727785"/><path d="M121.979 290.916c.287-.408.698-.756 1.228-.868-.892-.421-1.348-.352-1.893-.181-1.318.412-1.384 1.704-.783 1.798.602.094 1.149-.326 1.448-.749z" fill="#E5E6ED"/><path d="M122.534 289.999c-1.148-.02-2.103.992-2.527 1.517l.102.089c.786-1.152 1.801-1.611 2.425-1.606l.059.002a1.124 1.124 0 00-.059-.002z" fill="#727785"/><path d="M121.534 289.894c-.248.112-.35.426-.388.581l.031.009c.052-.327.223-.528.357-.59l.013-.006a.163.163 0 01-.013.006zM121.893 290.285c-.131.071-.295.018-.371-.014l.007-.016c.151.079.292.068.364.03l.007-.004-.007.004zM120.95 290.146c-.211.173-.229.502-.226.662l.032.001c-.034-.329.08-.568.194-.663zM121.634 290.679c-.238.133-.551.028-.698-.034l.011-.03c.293.153.557.135.687.064zM121.404 291.145c-.339.196-.767.07-.969-.007l.018-.043c.399.195.766.155.951.05l.017-.011-.017.011z" fill="#727785"/><path d="M110.914 285.098c.035-.498.205-1.008.601-1.379-.981.102-1.335.397-1.713.826-.914 1.035-.301 2.174.262 1.943.563-.23.814-.874.85-1.39z" fill="#E5E6ED"/><path d="M110.913 284.026c-.992.578-1.284 1.938-1.375 2.606l.134.024c.075-1.393.706-2.311 1.241-2.63z" fill="#727785"/><path d="M110.004 284.454c-.154.224-.079.546-.031.698l.031-.008c-.125-.307-.083-.568 0-.69l.008-.012-.008.012zM110.514 284.603c-.076.129-.243.167-.325.18l-.002-.018c.17-.01.285-.093.327-.162l.003-.007-.003.007zM109.635 284.973c-.091.257.064.548.15.683l.028-.016c-.2-.264-.227-.527-.178-.667l.005-.013-.005.013zM110.496 285.074c-.134.237-.456.309-.615.332l-.006-.031c.331-.021.547-.173.621-.301l.007-.012-.007.012zM110.54 285.591c-.187.344-.619.458-.831.496l-.007-.045c.441-.041.735-.265.838-.451z" fill="#727785"/><path d="M100.466 285.002c-.017-.294-.114-.595-.343-.816.576.067.782.243 1.001.498.53.616.161 1.282-.168 1.142-.33-.14-.473-.52-.49-.824z" fill="#E5E6ED"/><path d="M100.474 284.371c.58.347.742 1.149.79 1.543l-.078.013c-.034-.82-.399-1.365-.712-1.556l-.03-.018.03.018z" fill="#727785"/><path d="M101.006 284.629c.089.133.043.322.013.411l-.018-.005c.076-.179.053-.333.005-.406l-.005-.007.005.007zM100.705 284.713c.044.077.142.101.19.108l.001-.01c-.1-.007-.167-.057-.191-.098l-.002-.004.002.004zM101.219 284.937c.052.152-.041.322-.093.401l-.016-.01c.119-.154.137-.308.109-.391l-.002-.008.002.008zM100.712 284.99c.077.141.266.186.359.201l.004-.019c-.194-.015-.32-.106-.363-.182zM100.682 285.295c.108.203.361.273.486.297l.004-.026c-.259-.027-.43-.162-.49-.271l-.005-.011.005.011z" fill="#727785"/><path d="M118.759 288.47c.017-.293.114-.595.344-.816-.576.067-.783.244-1.002.498-.53.616-.161 1.282.168 1.142.33-.14.473-.52.49-.824z" fill="#E5E6ED"/><path d="M118.751 287.839c-.579.347-.741 1.149-.79 1.544l.079.012c.034-.82.398-1.365.711-1.556l.03-.018-.03.018z" fill="#727785"/><path d="M118.219 288.097c-.089.134-.042.322-.013.412l.019-.006c-.076-.179-.053-.333-.006-.406zM118.52 288.181c-.043.077-.141.101-.19.108l-.001-.01c.1-.007.167-.056.191-.098l.002-.004-.002.004zM118.006 288.405c-.052.152.042.322.093.401l.017-.01c-.12-.153-.137-.308-.11-.391l.003-.007-.003.007zM118.514 288.459c-.078.14-.267.185-.36.2l-.004-.019c.195-.015.321-.106.364-.181zM118.543 288.763c-.108.203-.361.274-.486.297l-.004-.026c.26-.027.431-.161.49-.271l.006-.011-.006.011z" fill="#727785"/><path d="M344.59 300h-10.614c-12.298 0-6.992-3.499-3.881-4.177-6.954-2.375-1.83-6.849 1.685-4.983-2.196-8.142 5.307-6.446 6.771-1.866 2.928-4.749 8.052-2.375 4.941 2.714 5.307-2.205 5.307 2.205 3.111 3.562 5.306.849 2.34 2.439-.587 2.439 3.477 1.866.915 2.311-1.426 2.311z" fill="#EDEEF2"/><path d="M350.476 299.505h-5.42c-6.279 0-3.57-1.866-1.981-2.228-3.551-1.267-.935-3.653.86-2.658-1.121-4.342 2.71-3.438 3.458-.995 1.495-2.533 4.111-1.266 2.523 1.448 2.71-1.176 2.71 1.176 1.588 1.899 2.71.453 1.196 1.301-.3 1.301 1.776.995.468 1.233-.728 1.233z" fill="#DFE0E6"/><path d="M326.247 287.448c-.288-.408-.699-.756-1.229-.868.892-.421 1.348-.352 1.893-.182 1.318.413 1.384 1.704.783 1.799-.601.094-1.149-.326-1.447-.749z" fill="#E5E6ED"/><path d="M325.691 286.531c1.148-.02 2.103.992 2.527 1.517l-.102.089c-.786-1.153-1.801-1.611-2.425-1.606l-.059.001.059-.001z" fill="#727785"/><path d="M326.691 286.425c.248.113.35.426.388.582l-.031.009c-.051-.327-.223-.528-.357-.591l-.013-.005a.07.07 0 01.013.005zM326.332 286.817c.132.071.295.018.371-.015l-.007-.015c-.151.079-.292.068-.364.03l-.007-.004.007.004zM327.276 286.678c.21.172.229.502.225.662l-.032.001c.034-.33-.08-.568-.193-.663l-.012-.009.012.009zM326.591 287.211c.238.133.551.028.699-.034l-.012-.03c-.293.153-.557.135-.687.064l-.012-.007.012.007zM326.821 287.676c.339.197.767.071.969-.007l-.018-.042c-.399.194-.766.155-.951.049l-.017-.01.017.01z" fill="#727785"/><path d="M350.979 290.916c.287-.408.698-.756 1.228-.868-.892-.421-1.348-.352-1.893-.181-1.318.412-1.384 1.704-.783 1.798.602.094 1.149-.326 1.448-.749z" fill="#E5E6ED"/><path d="M351.534 289.999c-1.148-.02-2.103.992-2.527 1.517l.102.089c.786-1.152 1.801-1.611 2.425-1.606l.059.002a1.124 1.124 0 00-.059-.002z" fill="#727785"/><path d="M350.534 289.894c-.248.112-.35.426-.388.581l.031.009c.052-.327.223-.528.357-.59l.013-.006-.013.006zM350.893 290.285c-.131.071-.295.018-.371-.014l.007-.016c.151.079.292.068.364.03l.007-.004-.007.004zM349.95 290.146c-.211.173-.229.502-.226.662l.032.001c-.034-.329.08-.568.194-.663zM350.634 290.679c-.238.133-.551.028-.698-.034l.011-.03c.293.153.557.135.687.064zM350.404 291.145c-.339.196-.767.07-.969-.007l.018-.043c.399.195.766.155.951.05l.017-.011-.017.011z" fill="#727785"/><path d="M339.914 285.098c.035-.498.205-1.008.601-1.379-.981.102-1.335.397-1.713.826-.914 1.035-.301 2.174.262 1.943.563-.23.814-.874.85-1.39z" fill="#E5E6ED"/><path d="M339.913 284.026c-.992.578-1.284 1.938-1.375 2.606l.134.024c.075-1.393.706-2.311 1.241-2.63z" fill="#727785"/><path d="M339.004 284.454c-.154.224-.079.546-.031.698l.031-.008c-.125-.307-.083-.568 0-.69l.008-.012-.008.012zM339.514 284.603c-.076.129-.243.167-.325.18l-.002-.018c.17-.01.285-.093.327-.162l.003-.007-.003.007zM338.635 284.973c-.091.257.064.548.15.683l.028-.016c-.2-.264-.227-.527-.178-.667zM339.496 285.074c-.134.237-.456.309-.615.332l-.006-.031c.331-.021.547-.173.621-.301l.007-.012-.007.012zM339.54 285.591c-.187.344-.619.458-.831.496l-.007-.045c.441-.041.735-.265.838-.451z" fill="#727785"/><path d="M329.466 285.002c-.017-.294-.114-.595-.343-.816.576.067.782.243 1.001.498.53.616.161 1.282-.168 1.142-.33-.14-.473-.52-.49-.824z" fill="#E5E6ED"/><path d="M329.474 284.371c.58.347.742 1.149.79 1.543l-.078.013c-.034-.82-.399-1.365-.712-1.556l-.03-.018.03.018z" fill="#727785"/><path d="M330.006 284.629c.089.133.043.322.013.411l-.018-.005c.076-.179.053-.333.005-.406l-.005-.007.005.007zM329.705 284.713c.044.077.142.101.19.108l.001-.01c-.1-.007-.167-.057-.191-.098l-.002-.004.002.004zM330.219 284.937c.052.152-.041.322-.093.401l-.016-.01c.119-.154.137-.308.109-.391l-.002-.008.002.008zM329.712 284.99c.077.141.266.186.359.201l.004-.019c-.194-.015-.32-.106-.363-.182zM329.682 285.295c.108.203.361.273.486.297l.004-.026c-.259-.027-.43-.162-.49-.271l-.005-.011a.097.097 0 00.005.011z" fill="#727785"/><path d="M347.759 288.47c.017-.293.114-.595.344-.816-.576.067-.783.244-1.002.498-.53.616-.161 1.282.168 1.142.33-.14.473-.52.49-.824z" fill="#E5E6ED"/><path d="M347.751 287.839c-.579.347-.741 1.149-.79 1.544l.079.012c.034-.82.398-1.365.711-1.556l.03-.018-.03.018z" fill="#727785"/><path d="M347.219 288.097c-.089.134-.042.322-.013.412l.019-.006c-.076-.179-.053-.333-.006-.406zM347.52 288.181c-.043.077-.141.101-.19.108l-.001-.01c.1-.007.167-.056.191-.098l.002-.004-.002.004zM347.006 288.405c-.052.152.042.322.093.401l.017-.01c-.12-.153-.137-.308-.11-.391l.003-.007-.003.007zM347.514 288.459c-.078.14-.267.185-.36.2l-.004-.019c.195-.015.321-.106.364-.181zM347.543 288.763c-.108.203-.361.274-.486.297l-.004-.026c.26-.027.431-.161.49-.271l.006-.011-.006.011z" fill="#727785"/><path d="M2 300h400" stroke="#20242E" stroke-width="4" stroke-linecap="round" stroke-linejoin="round"/><path fill="#334680" d="M137 189h79v109h-79z"/><rect x="125" y="161" width="103.126" height="28.397" rx="1.993" fill="#FD064A"/><path d="M141.44 186.408c0-1.101.893-1.993 1.993-1.993h37.365c1.1 0 1.993.892 1.993 1.993v2.989H141.44v-2.989z" fill="#fff"/><rect x="190.762" y="171.462" width="19.43" height="2.989" rx=".498" fill="#fff"/><circle cx="130.48" cy="166.48" r="1.495" fill="#FF4343"/><circle cx="140.444" cy="166.48" r="1.495" fill="#28C760"/><circle cx="135.462" cy="166.48" r="1.495" fill="#FFA113"/><circle cx="216.17" cy="172.957" r="3.986" fill="#fff"/><rect x="125" y="195.383" width="103.126" height="28.397" rx="1.993" fill="#FD064A"/><path d="M141.44 220.791c0-1.101.893-1.993 1.993-1.993h37.365c1.1 0 1.993.892 1.993 1.993v2.989H141.44v-2.989z" fill="#fff"/><rect x="190.762" y="205.845" width="19.43" height="2.989" rx=".498" fill="#fff"/><circle cx="130.48" cy="200.863" r="1.495" fill="#FF4343"/><circle cx="140.444" cy="200.863" r="1.495" fill="#28C760"/><circle cx="135.462" cy="200.863" r="1.495" fill="#FFA113"/><circle cx="216.17" cy="207.339" r="3.986" fill="#fff"/><rect x="125" y="229.765" width="103.126" height="28.397" rx="1.993" fill="#FD064A"/><path d="M141.44 255.173c0-1.1.893-1.992 1.993-1.992h37.365c1.1 0 1.993.892 1.993 1.992v2.989H141.44v-2.989z" fill="#fff"/><rect x="190.762" y="240.227" width="19.43" height="2.989" rx=".498" fill="#fff"/><circle cx="130.48" cy="235.245" r="1.495" fill="#FF4343"/><circle cx="140.444" cy="235.245" r="1.495" fill="#28C760"/><circle cx="135.462" cy="235.245" r="1.495" fill="#FFA113"/><circle cx="216.17" cy="241.722" r="3.986" fill="#fff"/><rect x="125" y="264.148" width="103.126" height="28.397" rx="1.993" fill="#FD064A"/><path d="M141.44 289.556c0-1.101.893-1.993 1.993-1.993h37.365c1.1 0 1.993.892 1.993 1.993v2.989H141.44v-2.989z" fill="#fff"/><rect x="190.762" y="274.61" width="19.43" height="2.989" rx=".498" fill="#fff"/><circle cx="130.48" cy="269.628" r="1.495" fill="#FF4343"/><circle cx="140.444" cy="269.628" r="1.495" fill="#28C760"/><circle cx="135.462" cy="269.628" r="1.495" fill="#FFA113"/><circle cx="216.17" cy="276.105" r="3.986" fill="#fff"/><rect x="264" y="212" width="24" height="24" rx="1.826" fill="#FD064A"/><path opacity=".1" fill-rule="evenodd" clip-rule="evenodd" d="M283.312 212.153c-1.481 9.412-9.533 16.643-19.312 16.847v-15.174c0-1.008.818-1.826 1.826-1.826h16.753c.261 0 .508.055.733.153z" fill="#fff"/><rect x="267.273" y="215.273" width="17.454" height="17.454" rx="8.727" fill="#334680"/><rect x="271.636" y="222.364" width="3.273" height="3.273" rx="1.636" fill="#20242E"/><rect x="277.091" y="222.364" width="3.273" height="3.273" rx="1.636" fill="#20242E"/><path fill-rule="evenodd" clip-rule="evenodd" d="M228 247.5h44.5a7 7 0 110 14H246a7.5 7.5 0 000 15h36v-3h-36a4.5 4.5 0 010-9h26.5c5.523 0 10-4.477 10-10s-4.477-10-10-10H228v3z" fill="#334680"/><path d="M290 271h5a1 1 0 010 2h-5v-2zM290 277h5a1 1 0 010 2h-5v-2z" fill="#334680"/><path d="M277 274.897a5.445 5.445 0 015.445-5.445h5.269v10.89h-5.269a5.445 5.445 0 01-5.445-5.445z" fill="#FD064A"/><rect x="287" y="268" width="3" height="14" rx=".726" fill="#FD064A"/><rect x="293" y="256" width=".996" height="5.978" rx=".498" fill="#FD064A"/><rect x="297.484" y="266.462" width=".996" height="5.978" rx=".498" transform="rotate(-90 297.484 266.462)" fill="#FD064A"/><rect x="296.694" y="263.423" width=".996" height="5.978" rx=".498" transform="rotate(-135 296.694 263.423)" fill="#FD064A"/><rect x="286.462" y="295.462" width=".996" height="5.978" rx=".498" transform="rotate(-180 286.462 295.462)" fill="#FD064A"/><rect x="281.978" y="285" width=".996" height="5.978" rx=".498" transform="rotate(90 281.978 285)" fill="#FD064A"/><rect x="282.768" y="288.039" width=".996" height="5.978" rx=".498" transform="rotate(45 282.768 288.039)" fill="#FD064A"/><path opacity=".1" fill-rule="evenodd" clip-rule="evenodd" d="M182.496 189.397a128.974 128.974 0 00-.624-28.397h-54.879a1.993 1.993 0 00-1.993 1.993v24.411c0 1.101.892 1.993 1.993 1.993h55.503zm-.676 5.986h-54.827a1.992 1.992 0 00-1.993 1.992v24.412c0 1.101.892 1.993 1.993 1.993h47.505a126.116 126.116 0 007.322-28.397zm-9.814 34.382h-45.013a1.993 1.993 0 00-1.993 1.993v24.412c0 1.1.892 1.992 1.993 1.992l14.447.001h13.069a127.028 127.028 0 0017.497-28.398zm-22.691 34.383h-22.322a1.993 1.993 0 00-1.993 1.993v18.498a127.655 127.655 0 0024.315-20.491z" fill="#fff"/></svg>